<?xml version="1.0" standalone="no"?><!DOCTYPE svg PUBLIC "-//W3C//DTD SVG 1.1//EN" "http://www.w3.org/Graphics/SVG/1.1/DTD/svg11.dtd"><svg class="icon" width="200px" height="200.00px" viewBox="0 0 1024 1024" version="1.1" xmlns="http://www.w3.org/2000/svg"><path d="M1013.91385 823.788068l-145.055585-144.30291c-12.946015-12.885801-37.573551-14.51158-44.558378 2.348347-1.896742 4.485945-2.348347 17.160997-2.348347 17.160997v97.486506H330.876064c-65.362323 0-118.531307-52.89802-118.531307-117.868953 0-65.031146 53.168984-117.89906 118.531307-117.89906H776.279203c121.481794 0 220.323115-98.299395 220.323115-219.148942 0-120.81944-98.811214-219.148942-220.323115-219.148941H340.359773A174.199173 174.199173 0 0 0 174.018531 0C78.037376 0 0 77.645984 0 173.055106c0 95.439229 78.037376 173.055106 173.988424 173.055106a174.169066 174.169066 0 0 0 166.371349-122.415111h435.949537c65.332216 0 118.5012 52.867913 118.5012 117.868952 0 65.031146-53.168984 117.89906-118.531307 117.89906H330.876064c-121.511901 0-220.353222 98.299395-220.353222 219.148942 0 120.81944 98.841321 219.118835 220.353222 219.118835H821.921433v92.518848s0 14.150296 2.348347 19.810414c7.014934 16.859927 31.612363 17.552388 44.558378 4.666587l145.115799-144.272802c12.946015-12.885801 12.946015-33.780068 0-46.665869zM174.018531 244.830223a72.076187 72.076187 0 0 1-72.166509-71.775117 72.076187 72.076187 0 0 1 72.166509-71.775117 72.076187 72.076187 0 0 1 72.166508 71.775117A72.076187 72.076187 0 0 1 174.018531 244.830223z" /></svg>