<svg xmlns="http://www.w3.org/2000/svg" width="11.309" height="12" viewBox="0 0 11.309 12">
  <defs>
    <style>
      .cls-1 {
        fill: #d5d5d5;
      }
    </style>
  </defs>
  <g id="组_311" data-name="组 311" transform="translate(-1479.486 -7772.655)">
    <path id="路径_393" data-name="路径 393" class="cls-1" d="M1648.6,8259.861a3.919,3.919,0,0,1-1.367-.245.527.527,0,0,0-.574.14l-.007.008a.521.521,0,0,0,.207.836,5.021,5.021,0,0,0,3.482,0,.521.521,0,0,0,.207-.836l-.007-.008a.527.527,0,0,0-.574-.14A3.918,3.918,0,0,1,1648.6,8259.861Z" transform="translate(-163.454 -477.286)"/>
    <path id="路径_394" data-name="路径 394" class="cls-1" d="M1925.228,7948.471a3.917,3.917,0,0,1-.45,1.827.519.519,0,0,0,.074.587l.007.008a.522.522,0,0,0,.851-.106,5.01,5.01,0,0,0,.024-4.586.521.521,0,0,0-.854-.106l-.007.008a.522.522,0,0,0-.074.583A3.918,3.918,0,0,1,1925.228,7948.471Z" transform="translate(-435.882 -169.834)"/>
    <path id="路径_395" data-name="路径 395" class="cls-1" d="M1646.347,7823.905a3.925,3.925,0,0,1,1.407.26.524.524,0,0,0,.581-.14l.008-.009a.522.522,0,0,0-.206-.833,5.037,5.037,0,0,0-3.579,0,.522.522,0,0,0-.206.833l.007.009a.524.524,0,0,0,.581.14A3.926,3.926,0,0,1,1646.347,7823.905Z" transform="translate(-161.206 -49.206)"/>
    <path id="路径_396" data-name="路径 396" class="cls-1" d="M1500.687,7948.471a3.919,3.919,0,0,1,.428-1.785.522.522,0,0,0-.073-.583l-.008-.008a.521.521,0,0,0-.854.106,5.012,5.012,0,0,0,.024,4.586.522.522,0,0,0,.851.106l.007-.008a.519.519,0,0,0,.074-.587A3.917,3.917,0,0,1,1500.687,7948.471Z" transform="translate(-19.751 -169.834)"/>
    <path id="路径_397" data-name="路径 397" class="cls-1" d="M1485.962,7778.7c4.568-4.885,4.679-5.055,4.74-5.147a.568.568,0,0,0-.194-.8.631.631,0,0,0-.325-.089.622.622,0,0,0-.51.259c-.2.253-2.165,2.372-4.531,4.9-2.367-2.532-4.334-4.65-4.532-4.9a.622.622,0,0,0-.51-.259.63.63,0,0,0-.325.089.567.567,0,0,0-.194.8c.061.092.172.262,4.739,5.147-1.58,1.688-3.262,3.48-4.676,4.984a.564.564,0,0,0,.047.825.634.634,0,0,0,.866-.045c.023-.025,2.25-2.393,4.585-4.886,2.334,2.494,4.561,4.861,4.584,4.886a.635.635,0,0,0,.866.045.565.565,0,0,0,.047-.825C1489.224,7782.177,1487.542,7780.384,1485.962,7778.7Z" transform="translate(0)"/>
  </g>
</svg>
