<?xml version="1.0" standalone="no"?><!DOCTYPE svg PUBLIC "-//W3C//DTD SVG 1.1//EN" "http://www.w3.org/Graphics/SVG/1.1/DTD/svg11.dtd"><svg class="icon" width="200px" height="200.00px" viewBox="0 0 1024 1024" version="1.1" xmlns="http://www.w3.org/2000/svg"><path d="M513.707 167.253c-61.44 0-112.64 49.494-112.64 112.64 0 61.44 49.493 112.64 112.64 112.64 61.44 0 112.64-49.493 112.64-112.64 0-63.146-49.494-112.64-112.64-112.64z m0 542.72s-266.24-296.96-266.24-443.733C247.467 119.467 366.933 0 513.707 0s266.24 119.467 266.24 266.24-266.24 443.733-266.24 443.733z m317.44-117.76l92.16-32.426v235.52s-138.24 56.32-240.64 85.333l-358.4-100.693-204.8 80.213V626.347l88.746-23.894c-1.706-15.36-3.413-52.906-3.413-68.266l-153.6 35.84v384l51.2-17.067 221.867-83.627 358.4 100.694 307.2-100.694v-384L836.267 512c-1.707 17.067-1.707 52.907-5.12 80.213z" /></svg>