<?xml version="1.0" standalone="no"?><!DOCTYPE svg PUBLIC "-//W3C//DTD SVG 1.1//EN" "http://www.w3.org/Graphics/SVG/1.1/DTD/svg11.dtd"><svg t="1617934977771" class="icon" viewBox="0 0 1024 1024" version="1.1" xmlns="http://www.w3.org/2000/svg" p-id="2025" xmlns:xlink="http://www.w3.org/1999/xlink" width="200" height="200"><defs><style type="text/css"></style></defs><path d="M791.04 188.373333l45.226667 45.226667-306.986667 306.986667-72.96 27.733333 27.733333-72.96L791.04 188.373333m0-81.706666a21.333333 21.333333 0 0 0-15.146667 6.186666L432.213333 456.533333a21.333333 21.333333 0 0 0-4.906666 7.466667l-64 170.666667A21.333333 21.333333 0 0 0 390.4 661.333333l170.666667-64a21.333333 21.333333 0 0 0 7.466666-4.906666l343.253334-343.68a21.333333 21.333333 0 0 0 0-30.08l-105.6-105.813334a21.333333 21.333333 0 0 0-15.146667-6.186666z" fill="#d5d5d5" p-id="2026"></path><path d="M789.333333 523.946667v330.666666H170.666667v-618.666666h330.666666a32 32 0 0 0 32-32 32 32 0 0 0-32-32H128a21.333333 21.333333 0 0 0-21.333333 21.333333v704a21.333333 21.333333 0 0 0 21.333333 21.333333h704a21.333333 21.333333 0 0 0 21.333333-21.333333v-373.333333a32 32 0 0 0-32-32 32 32 0 0 0-32 32z" fill="#d5d5d5" p-id="2027"></path></svg>