<svg class="icon" style="width: 1em; height: 1em;vertical-align: middle;fill: currentColor;overflow: hidden;" viewBox="0 0 1024 1024" version="1.1" xmlns="http://www.w3.org/2000/svg" p-id="2540">
    <path d="M512 0a512 512 0 0 1 512 512 512 512 0 0 1-512 512A512 512 0 0 1 0 512 512 512 0 0 1 512 0z" fill="#D7FFDB" p-id="2541"></path><path d="M512 102.4a409.6 409.6 0 0 1 409.6 409.6 409.6 409.6 0 0 1-409.6 409.6A409.6 409.6 0 0 1 102.4 512 409.6 409.6 0 0 1 512 102.4z" fill="#23E249" opacity=".9" p-id="2542"></path>
    <path d="M776.96 384L474.112 691.2l-8.96 8.448-8.96-8.448-187.648-189.952 61.184-61.952 135.424 136.96L716.8 321.28z" fill="#FFFFFF" p-id="2543"></path>
</svg>