<svg class="icon" style="width: 1em; height: 1em;vertical-align: middle;fill: #d5d5d5;overflow: hidden;" viewBox="0 0 1024 1024" version="1.1" xmlns="http://www.w3.org/2000/svg" p-id="2773"><path d="M910.016 213.312h-148.928V113.92a49.664 49.664 0 0 0-49.664-49.664H313.92h-0.064a49.664 49.664 0 0 0-49.664 49.664v99.328H115.2a49.664 49.664 0 0 0 0 99.328h49.664V908.8c0 27.52 22.272 49.664 49.664 49.664h596.032a50.752 50.752 0 0 0 19.328-3.904 49.792 49.792 0 0 0 30.336-45.824V312.768v-0.128h49.664a49.6 49.6 0 0 0 0.128-99.328zM363.52 163.648h298.24v49.664H363.52v-49.664z m198.656 695.488H463.04V312.768v-0.128h99.136V859.136zM363.712 312.64V859.136H264.256V312.768v-0.128h99.456z m397.312 0.128v546.368h-99.456V312.768l-0.064-0.128h99.52v0.128z"></path></svg>