<svg xmlns="http://www.w3.org/2000/svg" width="20" height="20" viewBox="0 0 20 20">
  <defs>
    <style>
      .cls-1 {
        fill: #d5d5d5;
      }
    </style>
  </defs>
  <g id="组_215" data-name="组 215" transform="translate(-5711.288 -349.448)">
    <path id="路径_327" data-name="路径 327" class="cls-1" d="M5721.288,369.448a10,10,0,1,1,10-10A10.011,10.011,0,0,1,5721.288,369.448Zm0-18.364a8.364,8.364,0,1,0,8.364,8.364A8.373,8.373,0,0,0,5721.288,351.084Z"/>
    <path id="路径_328" data-name="路径 328" class="cls-1" d="M5841.045,485.433a.716.716,0,0,1-.788-.608v-4.786h-4.786a.841.841,0,0,1,0-1.622h4.786v-4.785a.841.841,0,0,1,1.622,0v4.785h4.775a.735.735,0,0,1,.618.811.888.888,0,0,1-.231.641.532.532,0,0,1-.376.17h-4.786v4.775a.736.736,0,0,1-.812.618Z" transform="translate(-119.78 -119.78)"/>
  </g>
</svg>
