<svg id="组_232" data-name="组 232" xmlns="http://www.w3.org/2000/svg" width="20" height="20" viewBox="0 0 20 20">
  <defs>
    <style>
      .cls-1 {
        fill: #d5d5d5;
      }
    </style>
  </defs>
  <path id="路径_340" data-name="路径 340" class="cls-1" d="M4933.844,2106.17h-14.859a2.574,2.574,0,0,0-2.571,2.571V2123.6a2.574,2.574,0,0,0,2.571,2.571h14.859a2.574,2.574,0,0,0,2.57-2.571V2108.74A2.573,2.573,0,0,0,4933.844,2106.17Zm2.01,17.429a2.012,2.012,0,0,1-2.01,2.01h-14.859a2.012,2.012,0,0,1-2.01-2.01V2108.74a2.012,2.012,0,0,1,2.01-2.01h14.859a2.012,2.012,0,0,1,2.01,2.01Z" transform="translate(-4916.414 -2106.17)"/>
  <path id="路径_341" data-name="路径 341" class="cls-1" d="M5014.536,2195.959h-2.274v-2.341a2.079,2.079,0,0,0-2.077-2.077h-5.37a2.079,2.079,0,0,0-2.077,2.077v5.371a2.079,2.079,0,0,0,2.077,2.077h2.274v2.341a2.079,2.079,0,0,0,2.077,2.077h5.37a2.079,2.079,0,0,0,2.076-2.077v-5.371A2.079,2.079,0,0,0,5014.536,2195.959Zm-9.721,3.365a.335.335,0,0,1-.334-.334v-5.371a.335.335,0,0,1,.334-.334h5.37a.334.334,0,0,1,.334.334v2.341h-1.354a2.079,2.079,0,0,0-2.077,2.076v1.288Zm5.7-1.622v1.288a.334.334,0,0,1-.334.334h-1.354v-1.288a.335.335,0,0,1,.335-.334Zm4.351,5.705a.334.334,0,0,1-.334.334h-5.37a.335.335,0,0,1-.335-.334v-2.341h1.354a2.079,2.079,0,0,0,2.077-2.077V2197.7h2.274a.334.334,0,0,1,.334.334Z" transform="translate(-4999.676 -2188.513)"/>
</svg>
