<svg xmlns="http://www.w3.org/2000/svg" width="20" height="20" viewBox="0 0 20 20">
  <defs>
    <style>
      .cls-1 {
        fill: #d5d5d5;
      }
    </style>
  </defs>
  <g id="组_219" data-name="组 219" transform="translate(-6707.911 -372.674)">
    <path id="路径_333" data-name="路径 333" class="cls-1" d="M6721.482,590.161a.833.833,0,0,1-.589-1.419l1.451-1.456h-8.4a6.05,6.05,0,0,1-6.034-6.052,6.833,6.833,0,0,1,1.081-3.7.831.831,0,0,1,1.4.9,5.159,5.159,0,0,0-.82,2.795,4.38,4.38,0,0,0,4.374,4.387h8.511l-1.564-1.569h0a.834.834,0,0,1,.071-1.106.828.828,0,0,1,1.1-.055l0,0,2.927,2.935a.841.841,0,0,1,.243.589.829.829,0,0,1-.243.589l-2.927,2.919a.823.823,0,0,1-.585.246Z" transform="translate(0 -197.487)"/>
    <path id="路径_334" data-name="路径 334" class="cls-1" d="M6819.582,384.585a.827.827,0,0,1-.457-.137.833.833,0,0,1-.232-1.161,5.185,5.185,0,0,0,.86-2.858,4.386,4.386,0,0,0-4.375-4.387H6806.6l1.7,1.7a.825.825,0,1,1-1.171,1.161l-2.93-2.918a.837.837,0,0,1-.244-.589.825.825,0,0,1,.244-.589l2.93-2.935a.831.831,0,0,1,1.172,1.172l-1.325,1.329h8.4a6.048,6.048,0,0,1,6.035,6.052,6.814,6.814,0,0,1-1.138,3.786.828.828,0,0,1-.689.37Z" transform="translate(-93.501 1)"/>
  </g>
</svg>
