<?xml version="1.0" standalone="no"?><!DOCTYPE svg PUBLIC "-//W3C//DTD SVG 1.1//EN" "http://www.w3.org/Graphics/SVG/1.1/DTD/svg11.dtd"><svg t="1618541070234" class="icon" viewBox="0 0 1024 1024" version="1.1" xmlns="http://www.w3.org/2000/svg" p-id="2833" xmlns:xlink="http://www.w3.org/1999/xlink" width="200" height="200"><defs><style type="text/css"></style></defs><path d="M588.359375 521.703125l300.375-300.375c20.671875-20.671875 20.671875-54.421875 0-74.671875l-1.6875-1.6875c-10.125-10.125-23.203125-15.609375-37.546875-15.609375s-27.421875 5.484375-37.546875 15.609375L512 445.765625 211.625 144.96875c-10.125-10.125-23.203125-15.609375-37.546875-15.609375-14.34375 0-27.421875 5.484375-37.546875 15.609375l-1.6875 1.6875c-10.125 10.125-16.03125 23.203125-16.03125 37.546875s5.484375 27.421875 15.609375 37.546875l300.375 300.375-300.375 300.375c-20.671875 20.671875-20.671875 54.421875 0 74.671875l1.6875 1.6875c10.125 10.125 23.203125 15.609375 37.546875 15.609375 14.34375 0 27.421875-5.484375 37.546875-15.609375l300.375-300.375 300.375 300.375c10.125 10.125 23.203125 15.609375 37.546875 15.609375s27.421875-5.484375 37.546875-15.609375l1.6875-1.6875c10.125-10.125 15.609375-23.203125 15.609375-37.546875 0-14.34375-5.484375-27.421875-15.609375-37.546875l-300.375-300.375z" p-id="2834" fill="#9a9a9a"></path></svg>