<svg xmlns="http://www.w3.org/2000/svg" width="20" height="20" viewBox="0 0 20 20">
  <defs>
    <style>
      .cls-1 {
        fill: #d5d5d5;
      }
    </style>
  </defs>
  <g id="组_211" data-name="组 211" transform="translate(-4809.83 -373.513)">
    <path id="路径_320" data-name="路径 320" class="cls-1" d="M4926.611,390.359a.81.81,0,0,1,0-1.62.359.359,0,0,0,.359-.358v-12.89a.359.359,0,0,0-.359-.358h-12.889a.359.359,0,0,0-.359.358.81.81,0,0,1-1.62,0,1.981,1.981,0,0,1,1.979-1.978h12.889a1.981,1.981,0,0,1,1.979,1.978v12.89A1.981,1.981,0,0,1,4926.611,390.359Z" transform="translate(-98.759)"/>
    <path id="路径_321" data-name="路径 321" class="cls-1" d="M4811.808,492.272a1.98,1.98,0,0,1-1.978-1.978V477.4a1.98,1.98,0,0,1,1.978-1.978h12.89a1.98,1.98,0,0,1,1.978,1.978v12.89a1.981,1.981,0,0,1-1.978,1.978Zm0-15.226a.359.359,0,0,0-.358.358v12.89a.359.359,0,0,0,.358.358h12.89a.359.359,0,0,0,.358-.358V477.4a.359.359,0,0,0-.358-.358Z" transform="translate(0 -98.759)"/>
    <path id="路径_322" data-name="路径 322" class="cls-1" d="M4950.542,620.331a.81.81,0,0,1-.81-.81v-2.578h-2.578a.81.81,0,1,1,0-1.62h2.578v-2.578a.81.81,0,1,1,1.62,0v2.578h2.578a.81.81,0,1,1,0,1.62h-2.578v2.578A.811.811,0,0,1,4950.542,620.331Z" transform="translate(-132.289 -231.043)"/>
  </g>
</svg>
