<svg xmlns="http://www.w3.org/2000/svg" width="16" height="16" viewBox="0 0 16 16">
  <defs>
    <style>
      .cls-1 {
        fill: #32a3de;
      }
    </style>
  </defs>
  <g id="组_270" data-name="组 270" transform="translate(-4809.83 -373.513)">
    <path id="路径_320" data-name="路径 320" class="cls-1" d="M4923.643,387a.648.648,0,0,1,0-1.3.287.287,0,0,0,.287-.287V375.1a.287.287,0,0,0-.287-.287h-10.316a.287.287,0,0,0-.287.287.648.648,0,0,1-1.3,0,1.585,1.585,0,0,1,1.583-1.583h10.316a1.585,1.585,0,0,1,1.583,1.583v10.317A1.585,1.585,0,0,1,4923.643,387Z" transform="translate(-99.396)"/>
    <path id="路径_321" data-name="路径 321" class="cls-1" d="M4811.413,488.909a1.585,1.585,0,0,1-1.583-1.583V477.009a1.585,1.585,0,0,1,1.583-1.583h10.317a1.585,1.585,0,0,1,1.583,1.583v10.317a1.585,1.585,0,0,1-1.583,1.583Zm0-12.187a.287.287,0,0,0-.287.287v10.317a.287.287,0,0,0,.287.287h10.317a.287.287,0,0,0,.287-.287V477.009a.287.287,0,0,0-.287-.287Z" transform="translate(0 -99.396)"/>
    <path id="路径_322" data-name="路径 322" class="cls-1" d="M4949.7,618.655a.649.649,0,0,1-.648-.648v-2.064h-2.063a.648.648,0,0,1,0-1.3h2.063v-2.063a.648.648,0,1,1,1.3,0v2.063h2.063a.648.648,0,1,1,0,1.3h-2.063v2.064A.649.649,0,0,1,4949.7,618.655Z" transform="translate(-133.136 -232.521)"/>
  </g>
</svg>
