<svg xmlns="http://www.w3.org/2000/svg" width="20" height="20" viewBox="0 0 20 20">
  <defs>
    <style>
      .cls-1 {
        fill: #d5d5d5;
      }
    </style>
  </defs>
  <path id="路径_319" data-name="路径 319" class="cls-1" d="M3081.733,356.664a4.3,4.3,0,0,1-3.577-6.685l-2.12-2.6-2.12,2.6a4.273,4.273,0,0,1,.725,2.317v.071a4.3,4.3,0,1,1-2.04-3.655l2.26-2.767-6.367-7.8a.91.91,0,0,1,1.4-1.161l6.141,7.518,6.131-7.507a.91.91,0,0,1,1.421,1.138l-.01.012-6.368,7.8,2.26,2.767a4.3,4.3,0,0,1,2.191-.641h.071a4.3,4.3,0,1,1,0,8.594Zm0-6.828a2.531,2.531,0,1,0,2.535,2.531A2.536,2.536,0,0,0,3081.733,349.836Zm-11.395,0a2.531,2.531,0,1,0,2.534,2.531A2.535,2.535,0,0,0,3070.338,349.836Z" transform="translate(356.664 -3066.035) rotate(90)"/>
</svg>
