<svg id="组_233" data-name="组 233" xmlns="http://www.w3.org/2000/svg" width="20" height="20" viewBox="0 0 20 20">
  <defs>
    <style>
      .cls-1 {
        fill: #d5d5d5;
      }
    </style>
  </defs>
  <rect id="矩形_436" data-name="矩形 436" class="cls-1" width="0.568" height="0.705" transform="translate(0 5.937)"/>
  <rect id="矩形_437" data-name="矩形 437" class="cls-1" width="0.568" height="0.705" transform="translate(0 7.329)"/>
  <rect id="矩形_438" data-name="矩形 438" class="cls-1" width="0.568" height="0.705" transform="translate(0 8.721)"/>
  <rect id="矩形_439" data-name="矩形 439" class="cls-1" width="0.568" height="0.705" transform="translate(0 3.194)"/>
  <rect id="矩形_440" data-name="矩形 440" class="cls-1" width="0.568" height="0.705" transform="translate(0 4.544)"/>
  <path id="路径_342" data-name="路径 342" class="cls-1" d="M5703.855,2586.109v-.351h-.567v.351a2.615,2.615,0,0,0,.03.4l.561-.086A2.047,2.047,0,0,1,5703.855,2586.109Z" transform="translate(-5703.288 -2568.713)"/>
  <rect id="矩形_441" data-name="矩形 441" class="cls-1" width="0.568" height="0.705" transform="translate(0 15.682)"/>
  <path id="路径_343" data-name="路径 343" class="cls-1" d="M5719.153,2111.375a2.6,2.6,0,0,0-.57.544l.449.347a2.03,2.03,0,0,1,.446-.426Z" transform="translate(-5718.041 -2110.906)"/>
  <rect id="矩形_442" data-name="矩形 442" class="cls-1" width="0.568" height="0.705" transform="translate(0 14.29)"/>
  <path id="路径_344" data-name="路径 344" class="cls-1" d="M5710.795,2621.2a2.611,2.611,0,0,0,.451.646l.411-.391a2.038,2.038,0,0,1-.353-.506Z" transform="translate(-5710.528 -2602.655)"/>
  <rect id="矩形_443" data-name="矩形 443" class="cls-1" width="0.568" height="0.705" transform="translate(0 12.898)"/>
  <rect id="矩形_444" data-name="矩形 444" class="cls-1" width="0.568" height="0.705" transform="translate(0 11.506)"/>
  <rect id="矩形_445" data-name="矩形 445" class="cls-1" width="0.568" height="0.705" transform="translate(0 10.113)"/>
  <rect id="矩形_446" data-name="矩形 446" class="cls-1" width="0.705" height="0.568" transform="translate(14.4 0)"/>
  <rect id="矩形_447" data-name="矩形 447" class="cls-1" width="0.705" height="0.568" transform="translate(13.008 0)"/>
  <rect id="矩形_448" data-name="矩形 448" class="cls-1" width="0.705" height="0.568" transform="translate(11.616 0)"/>
  <path id="路径_345" data-name="路径 345" class="cls-1" d="M5755.377,2098.737v-.568a2.6,2.6,0,0,0-.779.12l.17.542A2.036,2.036,0,0,1,5755.377,2098.737Z" transform="translate(-5752.777 -2098.169)"/>
  <path id="路径_346" data-name="路径 346" class="cls-1" d="M6194.665,2098.778l.113-.556a2.621,2.621,0,0,0-.519-.052h-.24v.568h.24A2.054,2.054,0,0,1,6194.665,2098.778Z" transform="translate(-6176.862 -2098.17)"/>
  <path id="路径_347" data-name="路径 347" class="cls-1" d="M6252.426,2139.92l.562-.086a2.593,2.593,0,0,0-.238-.752l-.509.251A2,2,0,0,1,6252.426,2139.92Z" transform="translate(-6233.018 -2137.629)"/>
  <path id="路径_348" data-name="路径 348" class="cls-1" d="M6229,2108.185l.411-.392a2.6,2.6,0,0,0-.624-.482l-.275.5A2.043,2.043,0,0,1,6229,2108.185Z" transform="translate(-6210.131 -2106.987)"/>
  <rect id="矩形_449" data-name="矩形 449" class="cls-1" width="0.705" height="0.568" transform="translate(15.792 0)"/>
  <rect id="矩形_450" data-name="矩形 450" class="cls-1" width="0.705" height="0.568" transform="translate(4.654 0)"/>
  <rect id="矩形_451" data-name="矩形 451" class="cls-1" width="0.705" height="0.568" transform="translate(3.306 0)"/>
  <rect id="矩形_452" data-name="矩形 452" class="cls-1" width="0.705" height="0.568" transform="translate(6.047 0)"/>
  <rect id="矩形_453" data-name="矩形 453" class="cls-1" width="0.705" height="0.568" transform="translate(7.439 0)"/>
  <rect id="矩形_454" data-name="矩形 454" class="cls-1" width="0.705" height="0.568" transform="translate(10.223 0)"/>
  <rect id="矩形_455" data-name="矩形 455" class="cls-1" width="0.705" height="0.568" transform="translate(8.831 0)"/>
  <path id="路径_349" data-name="路径 349" class="cls-1" d="M5704.066,2146.334l-.533-.2a2.59,2.59,0,0,0-.157.773l.567.028A2.02,2.02,0,0,1,5704.066,2146.334Z" transform="translate(-5703.373 -2144.436)"/>
  <rect id="矩形_456" data-name="矩形 456" class="cls-1" width="0.568" height="0.705" transform="translate(19.432 15.443)"/>
  <rect id="矩形_457" data-name="矩形 457" class="cls-1" width="0.568" height="0.705" transform="translate(19.432 14.05)"/>
  <rect id="矩形_458" data-name="矩形 458" class="cls-1" width="0.568" height="0.705" transform="translate(19.432 12.658)"/>
  <path id="路径_350" data-name="路径 350" class="cls-1" d="M6246.24,2615.975l.449.347a2.6,2.6,0,0,0,.382-.69l-.533-.2A2.035,2.035,0,0,1,6246.24,2615.975Z" transform="translate(-6227.231 -2597.337)"/>
  <path id="路径_351" data-name="路径 351" class="cls-1" d="M6258.079,2579.507c0,.033,0,.066,0,.1l.567.027c0-.041,0-.083,0-.125v-.594h-.568Z" transform="translate(-6238.646 -2562.111)"/>
  <rect id="矩形_459" data-name="矩形 459" class="cls-1" width="0.568" height="0.705" transform="translate(19.432 11.266)"/>
  <rect id="矩形_460" data-name="矩形 460" class="cls-1" width="0.568" height="0.705" transform="translate(19.432 5.697)"/>
  <path id="路径_352" data-name="路径 352" class="cls-1" d="M6218.1,2642.93l.171.542a2.6,2.6,0,0,0,.707-.35l-.326-.465A2.031,2.031,0,0,1,6218.1,2642.93Z" transform="translate(-6200.093 -2623.593)"/>
  <rect id="矩形_461" data-name="矩形 461" class="cls-1" width="0.568" height="0.705" transform="translate(19.432 9.874)"/>
  <rect id="矩形_462" data-name="矩形 462" class="cls-1" width="0.568" height="0.705" transform="translate(19.432 2.951)"/>
  <rect id="矩形_463" data-name="矩形 463" class="cls-1" width="0.568" height="0.705" transform="translate(19.432 4.305)"/>
  <rect id="矩形_464" data-name="矩形 464" class="cls-1" width="0.568" height="0.705" transform="translate(19.432 7.089)"/>
  <path id="路径_353" data-name="路径 353" class="cls-1" d="M5741.074,2646.338a2.584,2.584,0,0,0,.74.274l.113-.556a2.008,2.008,0,0,1-.578-.214Z" transform="translate(-5739.733 -2626.665)"/>
  <rect id="矩形_465" data-name="矩形 465" class="cls-1" width="0.568" height="0.705" transform="translate(19.432 8.481)"/>
  <rect id="矩形_466" data-name="矩形 466" class="cls-1" width="0.705" height="0.568" transform="translate(5.587 19.432)"/>
  <rect id="矩形_467" data-name="矩形 467" class="cls-1" width="0.705" height="0.568" transform="translate(8.371 19.432)"/>
  <rect id="矩形_468" data-name="矩形 468" class="cls-1" width="0.705" height="0.568" transform="translate(9.764 19.432)"/>
  <rect id="矩形_469" data-name="矩形 469" class="cls-1" width="0.705" height="0.568" transform="translate(4.195 19.432)"/>
  <rect id="矩形_470" data-name="矩形 470" class="cls-1" width="0.705" height="0.568" transform="translate(2.84 19.432)"/>
  <rect id="矩形_471" data-name="矩形 471" class="cls-1" width="0.705" height="0.568" transform="translate(6.979 19.432)"/>
  <rect id="矩形_472" data-name="矩形 472" class="cls-1" width="0.705" height="0.568" transform="translate(15.332 19.432)"/>
  <rect id="矩形_473" data-name="矩形 473" class="cls-1" width="0.705" height="0.568" transform="translate(13.94 19.432)"/>
  <rect id="矩形_474" data-name="矩形 474" class="cls-1" width="0.712" height="0.568" transform="translate(16.691 19.432)"/>
  <rect id="矩形_475" data-name="矩形 475" class="cls-1" width="0.705" height="0.568" transform="translate(12.548 19.432)"/>
  <rect id="矩形_476" data-name="矩形 476" class="cls-1" width="0.705" height="0.568" transform="translate(11.156 19.432)"/>
  <path id="路径_354" data-name="路径 354" class="cls-1" d="M5773.7,2161.122v-4.11a2.117,2.117,0,0,0-2.115-2.115h-4.11a2.117,2.117,0,0,0-2.115,2.115v4.11a2.117,2.117,0,0,0,2.115,2.115h4.11A2.117,2.117,0,0,0,5773.7,2161.122Zm-1.774,0a.341.341,0,0,1-.341.34h-4.11a.341.341,0,0,1-.34-.34v-4.11a.341.341,0,0,1,.34-.341h4.11a.341.341,0,0,1,.341.341Z" transform="translate(-5763.156 -2152.884)"/>
  <path id="路径_355" data-name="路径 355" class="cls-1" d="M5988.694,2379.422h-4.11a2.117,2.117,0,0,0-2.115,2.115v4.11a2.117,2.117,0,0,0,2.115,2.115h4.11a2.117,2.117,0,0,0,2.115-2.115v-4.11A2.117,2.117,0,0,0,5988.694,2379.422Zm.341,6.225a.341.341,0,0,1-.341.341h-4.11a.341.341,0,0,1-.341-.341v-4.11a.341.341,0,0,1,.341-.341h4.11a.341.341,0,0,1,.341.341Z" transform="translate(-5972.819 -2369.699)"/>
</svg>
