<svg xmlns="http://www.w3.org/2000/svg" width="20" height="20" viewBox="0 0 20 20">
  <defs>
    <style>
      .cls-1 {
        fill: #d5d5d5;
      }
    </style>
  </defs>
  <g id="组_221" data-name="组 221" transform="translate(-1730.969 -5462.286)">
    <g id="组_220" data-name="组 220" transform="translate(-5990.772 5102.589)">
      <path id="路径_335" data-name="路径 335" class="cls-1" d="M7727.15,379.7a3.451,3.451,0,0,1-3.23-3.63V365.18h-1.209a.907.907,0,1,1,0-1.809h5.192l0-.061a3.625,3.625,0,0,1,1.213-2.561,4.2,4.2,0,0,1,5.56,0,3.609,3.609,0,0,1,1.207,2.566l0,.061h4.886a.907.907,0,1,1,0,1.809h-1.1v10.881a3.451,3.451,0,0,1-3.229,3.63Zm-.071-1.674h9.356c.839,0,1.424-1.026,1.424-1.947v-10.89h-12.138v10.881c0,.9.554,1.891,1.357,1.944Zm4.822-16.64a2.27,2.27,0,0,0-1.5.555,2,2,0,0,0-.687,1.365l0,.067h4.38l0-.067a1.982,1.982,0,0,0-.678-1.364A2.263,2.263,0,0,0,7731.9,361.384Z"/>
      <path id="路径_336" data-name="路径 336" class="cls-1" d="M7925.893,613.092c-.437,0-.793-.5-.793-1.11v-6.716c0-.612.355-1.11.793-1.11s.793.5.793,1.11v6.716C7926.687,612.594,7926.331,613.092,7925.893,613.092Z" transform="translate(-196.496 -237.129)"/>
      <path id="路径_337" data-name="路径 337" class="cls-1" d="M8064.777,614.221c-.445,0-.794-.487-.794-1.11v-6.716c0-.612.356-1.11.794-1.11s.793.5.793,1.11v6.716C8065.57,613.723,8065.215,614.221,8064.777,614.221Z" transform="translate(-330.692 -238.224)"/>
    </g>
  </g>
</svg>
