<svg xmlns="http://www.w3.org/2000/svg" width="20" height="16" viewBox="0 0 20 16">
  <defs>
    <style>
      .cls-1 {
        fill: #d5d5d5;
      }
    </style>
  </defs>
  <g id="组_264" data-name="组 264" transform="translate(-4646.9 -3696.832)">
    <g id="组_261" data-name="组 261" transform="translate(4646.9 3698.366)">
      <path id="路径_374" data-name="路径 374" class="cls-1" d="M4653.258,3764.015a.854.854,0,0,1-.616-.267l-5.478-5.7a.972.972,0,0,1,.009-1.341l5.479-5.536a.844.844,0,0,1,1.244.032.973.973,0,0,1-.03,1.319l-4.82,4.87,4.829,5.024a.972.972,0,0,1,.012,1.319A.851.851,0,0,1,4653.258,3764.015Z" transform="translate(-4646.9 -3750.914)"/>
    </g>
    <g id="组_262" data-name="组 262" transform="translate(4659.662 3698.366)">
      <path id="路径_375" data-name="路径 375" class="cls-1" d="M5104.377,3764.015a.854.854,0,0,1-.628-.28.973.973,0,0,1,.012-1.319l4.83-5.024-4.82-4.87a.972.972,0,0,1-.03-1.319.844.844,0,0,1,1.243-.032l5.479,5.536a.973.973,0,0,1,.009,1.341l-5.479,5.7A.854.854,0,0,1,5104.377,3764.015Z" transform="translate(-5103.497 -3750.914)"/>
    </g>
    <g id="组_263" data-name="组 263" transform="translate(4654.395 3696.832)">
      <path id="路径_376" data-name="路径 376" class="cls-1" d="M4915.322,3712.832a.871.871,0,0,1-.207-.026.927.927,0,0,1-.649-1.114l3.252-14.154a.877.877,0,0,1,1.061-.681.925.925,0,0,1,.649,1.113l-3.251,14.154A.89.89,0,0,1,4915.322,3712.832Z" transform="translate(-4914.441 -3696.832)"/>
    </g>
  </g>
</svg>
