<svg xmlns="http://www.w3.org/2000/svg" width="20" height="20" viewBox="0 0 20 20">
  <defs>
    <style>
      .cls-1 {
        fill: #d5d5d5;
      }

      .cls-2 {
        fill: none;
      }
    </style>
  </defs>
  <g id="组_214" data-name="组 214" transform="translate(-1601 -5474)">
    <g id="组_212" data-name="组 212" transform="translate(-3577.003 4831.135)">
      <g id="组_213" data-name="组 213" transform="translate(5180.003 642.865)">
        <path id="路径_323" data-name="路径 323" class="cls-1" d="M4941.057,382.885a2.14,2.14,0,0,1-2.054-2.212V366.1a2.14,2.14,0,0,1,2.054-2.212h11.893A2.14,2.14,0,0,1,4955,366.1v14.575a2.14,2.14,0,0,1-2.054,2.212Zm0-17.444a.584.584,0,0,0-.431.192.679.679,0,0,0-.18.464v14.575a.636.636,0,0,0,.61.657h11.893a.635.635,0,0,0,.609-.657V366.1a.635.635,0,0,0-.609-.657Z" transform="translate(-4939.003 -363.885)"/>
        <path id="路径_324" data-name="路径 324" class="cls-1" d="M5046.134,510.215a.788.788,0,0,1,0-1.563h8.155a.739.739,0,0,1,.687.782.75.75,0,0,1-.685.782h-8.157Z" transform="translate(-5042.205 -504.264)"/>
        <path id="路径_325" data-name="路径 325" class="cls-1" d="M5046.134,653.087a.788.788,0,0,1,0-1.563h8.155a.788.788,0,0,1,0,1.563Z" transform="translate(-5042.205 -642.806)"/>
        <path id="路径_326" data-name="路径 326" class="cls-1" d="M5046.134,795.962a.788.788,0,0,1,0-1.563h8.155a.75.75,0,0,1,.687.78.74.74,0,0,1-.687.783Z" transform="translate(-5042.205 -781.35)"/>
      </g>
    </g>
    <rect id="矩形_435" data-name="矩形 435" class="cls-2" width="20" height="20" transform="translate(1601 5474)"/>
  </g>
</svg>
