<svg id="组_202" data-name="组 202" xmlns="http://www.w3.org/2000/svg" width="20" height="20" viewBox="0 0 20 20">
  <defs>
    <style>
      .cls-1 {
        fill: #d5d5d5;
      }

      .cls-2 {
        fill: none;
      }
    </style>
  </defs>
  <path id="路径_318" data-name="路径 318" class="cls-1" d="M2235.38,340.074a.971.971,0,1,0,0-1.94h-10.431a5.31,5.31,0,1,1,0-10.613h9.079l-2.014,1.939a.951.951,0,0,0-.278.947.991.991,0,0,0,.72.692,1.045,1.045,0,0,0,.255.031,1.032,1.032,0,0,0,.725-.3l3.691-3.552a.945.945,0,0,0,0-1.373l-3.687-3.55a1.036,1.036,0,0,0-1.426,0,.946.946,0,0,0,0,1.372l1.922,1.85h-8.986a7.625,7.625,0,0,0-5.322,2.122,7.057,7.057,0,0,0,0,10.249,7.625,7.625,0,0,0,5.322,2.123Z" transform="translate(-2217.422 -321.074)"/>
  <rect id="矩形_434" data-name="矩形 434" class="cls-2" width="20" height="20"/>
</svg>
