<?xml version="1.0" standalone="no"?><!DOCTYPE svg PUBLIC "-//W3C//DTD SVG 1.1//EN" "http://www.w3.org/Graphics/SVG/1.1/DTD/svg11.dtd"><svg t="1618540336712" class="icon" viewBox="0 0 1024 1024" version="1.1" xmlns="http://www.w3.org/2000/svg" p-id="1991" xmlns:xlink="http://www.w3.org/1999/xlink" width="200" height="200"><defs><style type="text/css"></style></defs><path d="M954.266 325.153c-24.178-57.162-58.783-108.492-102.855-152.564-44.072-44.072-95.402-78.677-152.564-102.855C639.65 44.696 576.785 32 512 32S384.35 44.696 325.153 69.734C267.99 93.912 216.66 128.517 172.589 172.589 128.517 216.66 93.912 267.99 69.734 325.153 44.696 384.35 32 447.215 32 512s12.696 127.65 37.734 186.847c24.178 57.162 58.783 108.492 102.855 152.564 44.072 44.072 95.402 78.677 152.564 102.855C384.35 979.304 447.215 992 512 992s127.65-12.696 186.847-37.734c57.162-24.178 108.492-58.783 152.564-102.855 44.072-44.072 78.677-95.402 102.855-152.564C979.304 639.65 992 576.785 992 512s-12.696-127.65-37.734-186.847z m-58.944 348.763c-20.95 49.533-50.95 94.025-89.166 132.24-38.215 38.216-82.707 68.215-132.24 89.166C622.65 917.005 568.174 928 512 928s-110.65-10.995-161.916-32.678c-49.533-20.95-94.025-50.95-132.24-89.166-38.216-38.215-68.215-82.707-89.166-132.24C106.995 622.65 96 568.174 96 512s10.995-110.65 32.678-161.916c20.95-49.533 50.95-94.025 89.166-132.24 38.215-38.216 82.707-68.215 132.24-89.166C401.35 106.995 455.826 96 512 96s110.65 10.995 161.916 32.678c49.533 20.95 94.025 50.95 132.24 89.166 38.216 38.215 68.215 82.707 89.166 132.24C917.005 401.35 928 455.826 928 512s-10.995 110.65-32.678 161.916z" p-id="1992" fill="#d5d5d5"></path><path d="M709.149 475.627l-304.146-175.6c-12.953-7.476-29.046-7.476-42 0.003-12.952 7.478-20.998 21.416-20.998 36.372v351.196c0 14.956 8.046 28.894 20.998 36.372a41.986 41.986 0 0 0 21.001 5.61 42 42 0 0 0 21-5.609l304.144-175.598c12.954-7.478 21-21.416 21-36.373s-8.046-28.895-21-36.373zM406.005 649.493V374.507L644.149 512 406.005 649.493z" p-id="1993" fill="#d5d5d5"></path></svg>