<svg xmlns="http://www.w3.org/2000/svg" width="12" height="12" viewBox="0 0 12 12">
  <defs>
    <style>
      .cls-1 {
        fill: #d5d5d5;
      }
    </style>
  </defs>
  <g id="组_305" data-name="组 305" transform="translate(-2810.365 -3594.416)">
    <path id="路径_382" data-name="路径 382" class="cls-1" d="M2845.853,3943.533a1.512,1.512,0,0,0-1.349.807.43.43,0,0,1-.383.227h-5.563l-.132,0a1.861,1.861,0,1,1,.132-3.72h.693a.414.414,0,1,0,0-.828h-.693l-.158,0a2.689,2.689,0,1,0,.158,5.375h5.563a.43.43,0,0,1,.383.227,1.512,1.512,0,0,0,1.349.807,1.449,1.449,0,1,0,0-2.9Zm0,2.069a.621.621,0,1,1,.644-.621A.633.633,0,0,1,2845.853,3945.6Z" transform="translate(-24.989 -340.014)"/>
    <path id="路径_383" data-name="路径 383" class="cls-1" d="M2813.308,3596.279h5.854l.132,0a1.855,1.855,0,0,1,.23,3.688.432.432,0,0,0-.363.42v.085a.339.339,0,0,0,.381.33c.007,0,.2-.031.284-.052a2.708,2.708,0,0,0,2.126-2.689,2.745,2.745,0,0,0-2.792-2.614h-5.854a1.449,1.449,0,1,0,0,.831Zm-2.085-.415a.644.644,0,1,1,.644.621A.632.632,0,0,1,2811.223,3595.864Z" transform="translate(0)"/>
    <path id="路径_384" data-name="路径 384" class="cls-1" d="M3062.336,3821.163a.46.46,0,0,0,.65-.036c.008-.008.672-.75,1.416-1.584.744.834,1.409,1.575,1.416,1.584a.461.461,0,0,0,.686-.615c-.448-.5-.977-1.091-1.485-1.661,1.464-1.644,1.5-1.7,1.533-1.754a.461.461,0,0,0-.767-.509c-.087.11-.664.763-1.382,1.571-.719-.808-1.3-1.461-1.382-1.571a.461.461,0,0,0-.767.509c.032.052.069.11,1.533,1.754-.509.57-1.037,1.161-1.485,1.661A.46.46,0,0,0,3062.336,3821.163Z" transform="translate(-247.512 -218.389)"/>
  </g>
</svg>
