<svg xmlns="http://www.w3.org/2000/svg" width="12" height="12" viewBox="0 0 12 12">
  <defs>
    <style>
      .cls-1 {
        fill: #333;
      }

      .cls-2 {
        fill: none;
      }
    </style>
  </defs>
  <g id="组_540" data-name="组 540" transform="translate(-20 -138)">
    <g id="组_308" data-name="组 308" transform="translate(-64 -68)">
      <g id="组_307" data-name="组 307" transform="translate(-172.489 -3447.486)">
        <path id="路径_387" data-name="路径 387" class="cls-1" d="M257.89,3665.486h0a.435.435,0,0,1,.016-.869h.391v-1.906a3.822,3.822,0,0,1,1.817-2.79,5.626,5.626,0,0,0,.589-.522l.046-.054-.048-.052a5.5,5.5,0,0,0-.6-.488c-.77-.576-1.825-1.366-1.825-2.632v-1.817h-.372a.435.435,0,0,1,0-.869h8.165a.435.435,0,0,1,0,.869H265.7v1.817c0,1.266-1.055,2.055-1.825,2.632a5.488,5.488,0,0,0-.6.488l-.049.052.046.054a5.6,5.6,0,0,0,.586.519h0a3.825,3.825,0,0,1,1.818,2.792v1.906h.392a.427.427,0,0,1,.417.435.444.444,0,0,1-.122.308.41.41,0,0,1-.294.127Zm6.955-.869v-1.906c0-.886-.83-1.562-1.5-2.1-.541-.441-.969-.789-.969-1.264s.444-.822,1.006-1.243c.659-.493,1.478-1.106,1.478-1.926v-1.817h-5.751v1.817c0,.82.819,1.433,1.478,1.926.563.421,1.007.753,1.007,1.243s-.427.823-.968,1.263c-.667.544-1.5,1.219-1.5,2.105v1.906Z" transform="translate(0 0)"/>
        <path id="路径_388" data-name="路径 388" class="cls-1" d="M424.327,4179.187a.377.377,0,0,1,0-.754h2.91a.377.377,0,1,1,0,.754Z" transform="translate(-163.793 -515.966)"/>
      </g>
    </g>
    <rect id="矩形_743" data-name="矩形 743" class="cls-2" width="12" height="12" transform="translate(20 138)"/>
  </g>
</svg>
