<svg xmlns="http://www.w3.org/2000/svg" width="12" height="12" viewBox="0 0 12 12">
  <defs>
    <style>
      .cls-1 {
        fill: #333;
      }

      .cls-2 {
        fill: none;
      }
    </style>
  </defs>
  <g id="组_541" data-name="组 541" transform="translate(-130 -134)">
    <g id="组_309" data-name="组 309" transform="translate(-933.837 -3747.099)">
      <path id="路径_389" data-name="路径 389" class="cls-1" d="M1065.238,3893.1h0a.435.435,0,0,1,.016-.869h.391v-1.906a3.821,3.821,0,0,1,1.817-2.79,5.653,5.653,0,0,0,.589-.522l.046-.054-.048-.052a5.439,5.439,0,0,0-.6-.488c-.77-.576-1.825-1.366-1.825-2.632v-1.817h-.372a.435.435,0,0,1,0-.869h8.165a.435.435,0,0,1,0,.869h-.372v1.817c0,1.266-1.055,2.055-1.825,2.632a5.427,5.427,0,0,0-.6.488l-.048.052.046.054a5.613,5.613,0,0,0,.586.519h0a3.825,3.825,0,0,1,1.818,2.792v1.906h.391a.427.427,0,0,1,.417.435.444.444,0,0,1-.122.307.41.41,0,0,1-.294.127Zm6.955-.869v-1.906c0-.886-.83-1.562-1.5-2.105-.541-.441-.969-.789-.969-1.264s.444-.822,1.006-1.242c.659-.493,1.478-1.106,1.478-1.927v-1.817h-5.752v1.817c0,.82.819,1.433,1.478,1.926.563.421,1.007.753,1.007,1.243s-.427.823-.968,1.264c-.667.543-1.5,1.219-1.5,2.106v1.906Z"/>
      <path id="路径_390" data-name="路径 390" class="cls-1" d="M1250.964,4290.669a.1.1,0,0,1-.1-.073l-.243-.774a.07.07,0,0,0-.067-.049h-1.173a.069.069,0,0,0-.066.048l-.259.777a.1.1,0,0,1-.1.071h-.43a.1.1,0,0,1-.1-.139l1.238-3.5a.1.1,0,0,1,.1-.069h.4a.1.1,0,0,1,.1.069l1.238,3.5a.1.1,0,0,1-.1.139Zm-.995-2.646a.068.068,0,0,0-.066.047l-.335.98a.069.069,0,0,0,.066.092h.671a.069.069,0,0,0,.066-.092l-.335-.98A.068.068,0,0,0,1249.969,4288.022Z" transform="translate(-180.633 -398.916)"/>
    </g>
    <rect id="矩形_744" data-name="矩形 744" class="cls-2" width="12" height="12" transform="translate(130 134)"/>
  </g>
</svg>
