<?xml version="1.0" standalone="no"?><!DOCTYPE svg PUBLIC "-//W3C//DTD SVG 1.1//EN" "http://www.w3.org/Graphics/SVG/1.1/DTD/svg11.dtd"><svg class="icon" width="200px" height="200.00px" viewBox="0 0 1024 1024" version="1.1" xmlns="http://www.w3.org/2000/svg"><path d="M512 416a96 96 0 1 0 96 96 96 96 0 0 0-96-96z m295.573333 53.333333A298.666667 298.666667 0 0 0 554.666667 216.426667V85.333333h-85.333334v131.093334A298.666667 298.666667 0 0 0 216.426667 469.333333H85.333333v85.333334h131.093334A298.666667 298.666667 0 0 0 469.333333 807.573333V938.666667h85.333334V807.573333A298.666667 298.666667 0 0 0 807.573333 554.666667H938.666667v-85.333334zM512 725.333333a213.333333 213.333333 0 1 1 213.333333-213.333333 213.333333 213.333333 0 0 1-213.333333 213.333333z" /></svg>