<?xml version="1.0" standalone="no"?><!DOCTYPE svg PUBLIC "-//W3C//DTD SVG 1.1//EN" "http://www.w3.org/Graphics/SVG/1.1/DTD/svg11.dtd"><svg class="icon" width="200px" height="200.00px" viewBox="0 0 1024 1024" version="1.1" xmlns="http://www.w3.org/2000/svg"><path d="M126.633414 811.276969c0-174.66969 5.909559-214.01047 33.768911-224.689888 54.283524-20.831197 73.236325 35.43625 67.010182 199.025516l-5.804032 153.057587 289.357352-0.063316L800.323179 938.564656l6.120615-174.120944c4.854281-137.988211 12.684447-174.120945 37.778969-174.120945 25.685478 0 32.798054 40.775959 37.67344 216.332083L887.911291 1022.986933H126.633414zM7.555794 526.795004c-9.919617-25.854322 50.885527-99.977081 226.526073-276.12416C366.139412 118.275609 488.741663 9.919617 506.533658 9.919617c44.701595 0 506.533658 466.93961 506.533657 512.147739 0 71.189084-54.557896 34.127705-278.783462-189.401376L507.610042 106.667546 285.094027 327.389587C162.723938 448.788821 53.291562 551.277464 41.873449 555.139783c-11.397007 3.862319-26.846284-8.864339-34.317655-28.323674z" fill="#D1D1D1" /><path d="M135.645492 994.916526c-5.909559-15.407065-7.999011-112.767056-4.601014-216.332083C135.962076 628.059524 143.51787 590.322767 168.844553 590.322767c25.094522 0 32.924688 36.132734 37.778968 174.120945l6.120615 174.120944h587.579043l6.120615-174.120944c4.854281-137.988211 12.684447-174.120945 37.778969-174.120945 25.685478 0 32.798054 40.775959 37.67344 216.332083L887.911291 1022.986933H517.170864c-288.914135 0-373.146461-6.183932-381.525372-28.070407zM9.138711 535.279443C-6.015087 510.775877 478.568779 9.624139 516.748753 10.299518 546.212127 10.806051 1013.067315 482.32557 1013.067315 511.556783c0 74.460448-68.593099 30.603075-276.651799-176.759141L506.533658 105.612268 279.311101 332.13834C154.323921 456.724515 45.672451 558.664413 37.842285 558.664413c-7.830166 0-20.746774-10.531679-28.703574-23.406076z" fill="#ACACAC" /><path d="M141.196257 1009.394946c-8.020116-8.020116-14.562843-97.296673-14.562843-198.392349 0-137.017354 7.999011-190.498866 31.405087-209.91599 42.422194-35.204089 50.695577-8.062327 57.850365 189.739066l5.719609 158.291768 289.357352 5.867348 289.378458 5.867348 6.120615-185.264685c4.854281-147.886722 12.494497-185.264685 37.757863-185.264685 26.023167 0 31.658354 37.525702 31.658353 211.05569v211.055691l-360.061008 5.761821c-198.05466 3.165835-366.62484-0.802012-374.623851-8.801023zM9.033184 535.152809c-8.442228-13.697514 92.083598-130.17915 240.054742-278.150294L503.705511 2.42714l249.40451 239.273837c137.186199 131.593223 252.295973 251.114061 255.841708 265.592481 20.978936 85.68861-64.984047 31.088503-271.417618-172.326971L506.533658 107.321819 277.538233 333.003669C151.559091 457.104415 42.886516 558.664413 36.027206 558.664413c-6.838204 0-18.995012-10.594996-26.994022-23.532709z" fill="#939393" /><path d="M152.276681 807.161383c7.344738-264.368358 45.609135-283.405581 54.325735-27.015128L212.701925 959.670225H802.011625v-180.938043c0-160.972175 4.073375-180.157138 36.934745-173.846573 32.080465 6.183932 36.934746 33.431221 36.934746 207.341111V1012.434148l-364.809761 5.782926-364.809761 5.782926zM0 521.391978c0-8.864339 113.970073-129.820355 253.266829-268.758316L506.533658 0.021106 759.800486 252.633662c139.296756 138.937961 253.266829 259.872872 253.266829 268.758316 0 46.769941-76.613216 2.490457-184.568201-106.688651-66.799126-67.558927-167.09279-164.222433-222.87481-214.791377l-101.391153-91.956964-215.551177 214.791376C101.813265 508.981904 0 579.052393 0 521.391978z" fill="#6B6B6B" /><path d="M147.738983 812.437776C147.738983 638.443464 153.353065 600.875551 179.397337 600.875551c25.664372 0 31.658354 34.001072 31.658354 179.397337V959.670225h590.955934v-180.938043c0-153.353065 5.065337-179.903871 33.177954-174.120945 27.226184 5.592976 33.473433 42.844305 34.824189 207.320005l1.66734 200.502906-361.960509 5.782926L147.738983 1023.978894z m-147.738983-291.045798c0-8.864339 113.970073-129.820355 253.266829-268.758316L506.533658 0.021106 759.800486 252.633662c139.296756 138.937961 253.266829 259.872872 253.266829 268.758316 0 48.838287-75.093615-5.95177-267.323138-194.952141-118.001237-116.059524-222.473804-210.886846-232.161259-210.739107-9.687456 0.126633-116.249474 95.101694-236.804485 211.05569C81.699658 514.384929 0 571.834288 0 521.391978z" fill="#535353" /><path d="M161.816398 1008.909518C154.070654 1001.18488 147.738983 906.209819 147.738983 797.853827 147.738983 636.818335 153.521909 600.875551 179.397337 600.875551c25.664372 0 31.658354 34.001072 31.658354 179.397337V959.670225h589.267488l6.120615-172.432499c4.073375-114.582134 14.984954-175.345068 32.502576-181.149099 19.944763-6.606043 26.381961 43.245311 26.381962 204.090853V1022.986933H520.611072c-189.612432 0-351.070036-6.331671-358.794674-14.077415zM0 520.611072c0-9.328662 114.349973-129.904778 254.111052-267.935199L508.222103 1.709551 760.644709 253.477884C899.477143 391.930418 1013.067315 512.506534 1013.067315 521.391978c0 49.471454-75.64236-7.323632-276.546271-207.615483L512.042211 90.015252l-229.628591 223.507976C75.389093 515.060308 0 570.356898 0 520.632178z" fill="#383838" /><path d="M162.301826 1009.416052c-8.020116-8.020116-14.562843-103.206233-14.562843-211.562225C147.738983 636.818335 153.521909 600.875551 179.397337 600.875551c25.664372 0 31.658354 34.001072 31.658354 179.397337V959.670225H825.797601l-4.579909-173.04456c-3.123624-118.613298 3.33468-175.682757 20.556825-181.423472 18.572901-6.183932 23.553815 45.904613 19.058329 199.447628L854.775547 1012.434148l-338.955439 5.782926c-186.404386 3.165835-345.498166-0.780906-353.518282-8.801022zM11.882435 518.563832C-1.751762 496.529618 478.252195 31.025187 514.595985 31.025187 540.72468 31.025187 1013.067315 496.297457 1013.067315 522.067356c0 48.859392-76.824271-9.180923-279.311101-211.034585L506.533658 84.506699 279.311101 311.032771C154.323921 435.618946 45.672451 537.558844 37.842285 537.558844c-7.830166 0-19.522651-8.547755-25.980955-18.995012z" fill="#222222" /></svg>