<svg class="icon" style="width: 1em; height: 1em;vertical-align: middle;fill: d5d5d5;overflow: hidden;" viewBox="0 0 1024 1024" version="1.1" xmlns="http://www.w3.org/2000/svg" p-id="2462"><path d="M860.16 0a122.88 122.88 0 0 1 122.88 122.88v778.24a122.88 122.88 0 0 1-122.88 122.88H163.84a122.88 122.88 0 0 1-122.88-122.88V122.88a122.88 122.88 0 0 1 122.88-122.88h696.32zM219.9552 61.44H163.84a61.44 61.44 0 0 0-61.3376 57.83552L102.4 122.88v778.24a61.44 61.44 0 0 0 57.83552 61.3376L163.84 962.56h696.32a61.44 61.44 0 0 0 61.3376-57.83552L921.6 901.12V122.88a61.44 61.44 0 0 0-57.83552-61.3376L860.16 61.44h-56.1152v81.92a122.88 122.88 0 0 1-122.88 122.88H342.8352a122.88 122.88 0 0 1-122.88-122.88V61.44z m619.66336 737.28v61.44h-634.88v-61.44h634.88z m0-204.8v61.44h-634.88v-61.44h634.88z m0-204.8v61.44h-634.88v-61.44h634.88zM742.6048 61.44H281.3952v81.92a61.44 61.44 0 0 0 57.83552 61.3376l3.60448 0.1024h338.3296a61.44 61.44 0 0 0 61.3376-57.83552L742.6048 143.36V61.44z" p-id="2463"></path></svg>