<svg class="icon" style="width: 1em; height: 1em;vertical-align: middle;fill: #d5d5d5;overflow: hidden;" viewBox="0 0 1024 1024" version="1.1" xmlns="http://www.w3.org/2000/svg" p-id="2812"><path d="M969.728 340.992V270.336c0-60.928-48.128-128.512-112.64-128.512H532.48l-13.312-25.088c-13.312-25.6-39.424-41.472-68.608-41.472H104.448C47.104 74.752 0 123.392 0 182.784v658.944c0 59.392 47.104 107.52 104.448 107.52h814.592c57.856 0 104.448-48.128 104.448-107.52v-404.48c0.512-35.328-22.528-72.192-53.76-96.256z m-112.64-134.656c22.528 0 48.128 34.304 48.128 64v44.544H624.64l-57.344-108.544h289.792z m102.4 635.392c0 23.552-17.92 43.008-39.936 43.008H104.448c-22.016 0-39.936-19.456-39.936-43.008V182.784c0-23.552 17.92-43.008 39.936-43.008H450.56c4.608 0 9.216 2.56 11.264 7.168l114.176 215.552c5.632 10.752 16.384 17.408 28.672 17.408h296.96c23.04 0 57.856 34.304 57.856 57.856v403.968z m0 0" p-id="2813"></path></svg>